<svg xmlns="http://www.w3.org/2000/svg" viewBox="0 0 256 256">
	<defs>
		<linearGradient id="bg" x1="0" x2="0" y1="0" y2="1">
			<stop offset="0" stop-color="#041004"/>
			<stop offset="1" stop-color="#020802"/>
		</linearGradient>
		<filter id="glow" x="-30%" y="-30%" width="160%" height="160%">
			<feGaussianBlur stdDeviation="2" result="blur"/>
			<feMerge>
				<feMergeNode in="blur"/>
				<feMergeNode in="SourceGraphic"/>
			</feMerge>
		</filter>
	</defs>

	<rect width="256" height="256" rx="24" fill="url(#bg)"/>
	<rect x="7" y="7" width="242" height="242" rx="18" fill="none" stroke="#7df77d" stroke-width="3" opacity="0.8"/>

	<g fill="#8bff8b" filter="url(#glow)">
		<text x="128" y="44" text-anchor="middle" font-size="24" font-family="Arial, Helvetica, sans-serif" font-weight="700" letter-spacing="3">EXTERNAL</text>

		<path d="M86 68h84c11 0 20 9 20 20v40c0 11-9 20-20 20H86c-11 0-20-9-20-20V88c0-11 9-20 20-20z" fill="none" stroke="#8bff8b" stroke-width="8"/>

		<path d="M128 78l22 20h-15v23h-14V98h-15z"/>
		<path d="M128 136l-22-20h15V93h14v23h15z"/>

		<path d="M89 126a52 52 0 0 1 78 0" fill="none" stroke="#8bff8b" stroke-width="6"/>

		<text x="128" y="206" text-anchor="middle" font-size="38" font-family="Arial, Helvetica, sans-serif" font-weight="800" letter-spacing="4">DAGR</text>
	</g>
</svg>